<mxfile host="65bd71144e">
    <diagram id="NIb2RC8whT5BQ8-hKPur" name="Page-1">
        <mxGraphModel dx="-2876" dy="-2948" grid="1" gridSize="10" guides="1" tooltips="1" connect="1" arrows="1" fold="1" page="1" pageScale="1" pageWidth="850" pageHeight="1100" math="0" shadow="0">
            <root>
                <mxCell id="0"/>
                <mxCell id="1" parent="0"/>
                <mxCell id="3" value="&lt;h1&gt;Server API&lt;/h1&gt;&lt;p&gt;This is the absolute most naive version of the API - the simplest form of communication: enter a page, the server gives us everything we need for that page.&lt;/p&gt;&lt;p&gt;That means no subscriptions and highly redundant data (high bandwidth costs).&lt;/p&gt;" style="text;html=1;strokeColor=none;fillColor=none;spacing=5;spacingTop=-20;whiteSpace=wrap;overflow=hidden;rounded=0;" parent="1" vertex="1">
                    <mxGeometry x="4257" y="3310" width="836" height="100" as="geometry"/>
                </mxCell>
                <mxCell id="4" style="edgeStyle=orthogonalEdgeStyle;curved=1;html=1;labelBackgroundColor=default;fontColor=#F0F0F0;endArrow=classic;endFill=1;strokeColor=#F0F0F0;exitX=0;exitY=0.5;exitDx=0;exitDy=0;" parent="1" source="5" target="7" edge="1">
                    <mxGeometry relative="1" as="geometry"/>
                </mxCell>
                <mxCell id="5" value="Home Page" style="ellipse;whiteSpace=wrap;html=1;aspect=fixed;labelBackgroundColor=none;fontColor=#F0F0F0;strokeColor=#F0F0F0;" parent="1" vertex="1">
                    <mxGeometry x="4360" y="3440.5" width="80" height="80" as="geometry"/>
                </mxCell>
                <mxCell id="6" style="edgeStyle=orthogonalEdgeStyle;curved=1;html=1;entryX=0;entryY=0.5;entryDx=0;entryDy=0;entryPerimeter=0;labelBackgroundColor=default;fontColor=#F0F0F0;endArrow=classic;endFill=1;strokeColor=#F0F0F0;" parent="1" source="7" target="11" edge="1">
                    <mxGeometry relative="1" as="geometry"/>
                </mxCell>
                <mxCell id="7" value="Wallet Pub" style="rounded=0;whiteSpace=wrap;html=1;labelBackgroundColor=none;fontColor=#F0F0F0;strokeColor=#F0F0F0;" parent="1" vertex="1">
                    <mxGeometry x="4274" y="3529.5" width="120" height="60" as="geometry"/>
                </mxCell>
                <mxCell id="8" style="edgeStyle=orthogonalEdgeStyle;curved=1;html=1;entryX=1;entryY=0.5;entryDx=0;entryDy=0;labelBackgroundColor=default;fontColor=#F0F0F0;endArrow=classic;endFill=1;strokeColor=#F0F0F0;" parent="1" source="9" target="5" edge="1">
                    <mxGeometry relative="1" as="geometry"/>
                </mxCell>
                <mxCell id="9" value="List of Holdings" style="rounded=0;whiteSpace=wrap;html=1;labelBackgroundColor=none;fontColor=#F0F0F0;strokeColor=#F0F0F0;" parent="1" vertex="1">
                    <mxGeometry x="4407" y="3529.5" width="120" height="60" as="geometry"/>
                </mxCell>
                <mxCell id="10" style="edgeStyle=orthogonalEdgeStyle;curved=1;html=1;entryX=0.5;entryY=1;entryDx=0;entryDy=0;labelBackgroundColor=default;fontColor=#F0F0F0;endArrow=classic;endFill=1;strokeColor=#F0F0F0;exitX=1;exitY=0.5;exitDx=0;exitDy=0;exitPerimeter=0;" parent="1" source="11" target="9" edge="1">
                    <mxGeometry relative="1" as="geometry"/>
                </mxCell>
                <mxCell id="11" value="MT" style="shape=cylinder3;whiteSpace=wrap;html=1;boundedLbl=1;backgroundOutline=1;size=15;labelBackgroundColor=none;fontColor=#F0F0F0;strokeColor=#F0F0F0;" parent="1" vertex="1">
                    <mxGeometry x="4370" y="3599.5" width="60" height="60" as="geometry"/>
                </mxCell>
                <mxCell id="12" style="edgeStyle=orthogonalEdgeStyle;curved=1;html=1;labelBackgroundColor=default;fontColor=#F0F0F0;endArrow=classic;endFill=1;strokeColor=#F0F0F0;exitX=0;exitY=0.5;exitDx=0;exitDy=0;" parent="1" source="13" target="15" edge="1">
                    <mxGeometry relative="1" as="geometry"/>
                </mxCell>
                <mxCell id="13" value="a Holding" style="ellipse;whiteSpace=wrap;html=1;aspect=fixed;labelBackgroundColor=none;fontColor=#F0F0F0;strokeColor=#F0F0F0;" parent="1" vertex="1">
                    <mxGeometry x="4638.5" y="3440" width="80" height="80" as="geometry"/>
                </mxCell>
                <mxCell id="14" style="edgeStyle=orthogonalEdgeStyle;curved=1;html=1;entryX=0;entryY=0.5;entryDx=0;entryDy=0;entryPerimeter=0;labelBackgroundColor=default;fontColor=#F0F0F0;endArrow=classic;endFill=1;strokeColor=#F0F0F0;" parent="1" source="15" target="19" edge="1">
                    <mxGeometry relative="1" as="geometry"/>
                </mxCell>
                <mxCell id="15" value="Wallet Pub&lt;br&gt;Holding Technical Name" style="rounded=0;whiteSpace=wrap;html=1;labelBackgroundColor=none;fontColor=#F0F0F0;strokeColor=#F0F0F0;" parent="1" vertex="1">
                    <mxGeometry x="4552.5" y="3529" width="120" height="60" as="geometry"/>
                </mxCell>
                <mxCell id="16" style="edgeStyle=orthogonalEdgeStyle;curved=1;html=1;entryX=1;entryY=0.5;entryDx=0;entryDy=0;labelBackgroundColor=default;fontColor=#F0F0F0;endArrow=classic;endFill=1;strokeColor=#F0F0F0;" parent="1" source="17" target="13" edge="1">
                    <mxGeometry relative="1" as="geometry"/>
                </mxCell>
                <mxCell id="17" value="List of TransactionRecords" style="rounded=0;whiteSpace=wrap;html=1;labelBackgroundColor=none;fontColor=#F0F0F0;strokeColor=#F0F0F0;" parent="1" vertex="1">
                    <mxGeometry x="4685.5" y="3529" width="120" height="60" as="geometry"/>
                </mxCell>
                <mxCell id="18" style="edgeStyle=orthogonalEdgeStyle;curved=1;html=1;entryX=0.5;entryY=1;entryDx=0;entryDy=0;labelBackgroundColor=default;fontColor=#F0F0F0;endArrow=classic;endFill=1;strokeColor=#F0F0F0;exitX=1;exitY=0.5;exitDx=0;exitDy=0;exitPerimeter=0;" parent="1" source="19" target="17" edge="1">
                    <mxGeometry relative="1" as="geometry"/>
                </mxCell>
                <mxCell id="19" value="MT" style="shape=cylinder3;whiteSpace=wrap;html=1;boundedLbl=1;backgroundOutline=1;size=15;labelBackgroundColor=none;fontColor=#F0F0F0;strokeColor=#F0F0F0;" parent="1" vertex="1">
                    <mxGeometry x="4648.5" y="3599" width="60" height="60.5" as="geometry"/>
                </mxCell>
                <mxCell id="20" style="edgeStyle=orthogonalEdgeStyle;curved=1;html=1;labelBackgroundColor=default;fontColor=#F0F0F0;endArrow=classic;endFill=1;strokeColor=#F0F0F0;exitX=0;exitY=0.5;exitDx=0;exitDy=0;" parent="1" source="21" target="23" edge="1">
                    <mxGeometry relative="1" as="geometry"/>
                </mxCell>
                <mxCell id="21" value="a Transaction" style="ellipse;whiteSpace=wrap;html=1;aspect=fixed;labelBackgroundColor=none;fontColor=#F0F0F0;strokeColor=#F0F0F0;" parent="1" vertex="1">
                    <mxGeometry x="4910" y="3440.5" width="80" height="80" as="geometry"/>
                </mxCell>
                <mxCell id="22" style="edgeStyle=orthogonalEdgeStyle;curved=1;html=1;entryX=0;entryY=0.5;entryDx=0;entryDy=0;entryPerimeter=0;labelBackgroundColor=default;fontColor=#F0F0F0;endArrow=classic;endFill=1;strokeColor=#F0F0F0;" parent="1" source="23" target="27" edge="1">
                    <mxGeometry relative="1" as="geometry"/>
                </mxCell>
                <mxCell id="23" value="Wallet Pub&lt;br&gt;Holding Technical Name&lt;br&gt;TransactionId" style="rounded=0;whiteSpace=wrap;html=1;labelBackgroundColor=none;fontColor=#F0F0F0;strokeColor=#F0F0F0;" parent="1" vertex="1">
                    <mxGeometry x="4824" y="3529.5" width="120" height="60" as="geometry"/>
                </mxCell>
                <mxCell id="24" style="edgeStyle=orthogonalEdgeStyle;curved=1;html=1;entryX=1;entryY=0.5;entryDx=0;entryDy=0;labelBackgroundColor=default;fontColor=#F0F0F0;endArrow=classic;endFill=1;strokeColor=#F0F0F0;" parent="1" source="25" target="21" edge="1">
                    <mxGeometry relative="1" as="geometry"/>
                </mxCell>
                <mxCell id="25" value="Transaction Details" style="rounded=0;whiteSpace=wrap;html=1;labelBackgroundColor=none;fontColor=#F0F0F0;strokeColor=#F0F0F0;" parent="1" vertex="1">
                    <mxGeometry x="4957" y="3529.5" width="120" height="60" as="geometry"/>
                </mxCell>
                <mxCell id="26" style="edgeStyle=orthogonalEdgeStyle;curved=1;html=1;entryX=0.5;entryY=1;entryDx=0;entryDy=0;labelBackgroundColor=default;fontColor=#F0F0F0;endArrow=classic;endFill=1;strokeColor=#F0F0F0;exitX=1;exitY=0.5;exitDx=0;exitDy=0;exitPerimeter=0;" parent="1" source="27" target="25" edge="1">
                    <mxGeometry relative="1" as="geometry"/>
                </mxCell>
                <mxCell id="27" value="MT" style="shape=cylinder3;whiteSpace=wrap;html=1;boundedLbl=1;backgroundOutline=1;size=15;labelBackgroundColor=none;fontColor=#F0F0F0;strokeColor=#F0F0F0;" parent="1" vertex="1">
                    <mxGeometry x="4920" y="3599.5" width="60" height="60" as="geometry"/>
                </mxCell>
                <mxCell id="28" style="edgeStyle=orthogonalEdgeStyle;curved=1;html=1;labelBackgroundColor=default;fontColor=#F0F0F0;endArrow=classic;endFill=1;strokeColor=#F0F0F0;exitX=0;exitY=0.5;exitDx=0;exitDy=0;" parent="1" source="29" target="31" edge="1">
                    <mxGeometry relative="1" as="geometry"/>
                </mxCell>
                <mxCell id="29" value="Send Screen" style="ellipse;whiteSpace=wrap;html=1;aspect=fixed;labelBackgroundColor=none;fontColor=#F0F0F0;strokeColor=#F0F0F0;" parent="1" vertex="1">
                    <mxGeometry x="4360" y="3701" width="80" height="80" as="geometry"/>
                </mxCell>
                <mxCell id="30" style="edgeStyle=orthogonalEdgeStyle;curved=1;html=1;entryX=0;entryY=0.5;entryDx=0;entryDy=0;entryPerimeter=0;labelBackgroundColor=default;fontColor=#F0F0F0;endArrow=classic;endFill=1;strokeColor=#F0F0F0;" parent="1" source="31" target="35" edge="1">
                    <mxGeometry relative="1" as="geometry"/>
                </mxCell>
                <mxCell id="31" value="Wallet Pub" style="rounded=0;whiteSpace=wrap;html=1;labelBackgroundColor=none;fontColor=#F0F0F0;strokeColor=#F0F0F0;" parent="1" vertex="1">
                    <mxGeometry x="4274" y="3790" width="120" height="60" as="geometry"/>
                </mxCell>
                <mxCell id="32" style="edgeStyle=orthogonalEdgeStyle;curved=1;html=1;entryX=1;entryY=0.5;entryDx=0;entryDy=0;labelBackgroundColor=default;fontColor=#F0F0F0;endArrow=classic;endFill=1;strokeColor=#F0F0F0;" parent="1" source="33" target="29" edge="1">
                    <mxGeometry relative="1" as="geometry"/>
                </mxCell>
                <mxCell id="33" value="List of unspent vouts&lt;br&gt;Empty Change Address String" style="rounded=0;whiteSpace=wrap;html=1;labelBackgroundColor=none;fontColor=#F0F0F0;strokeColor=#F0F0F0;" parent="1" vertex="1">
                    <mxGeometry x="4407" y="3790" width="120" height="60" as="geometry"/>
                </mxCell>
                <mxCell id="34" style="edgeStyle=orthogonalEdgeStyle;curved=1;html=1;entryX=0.5;entryY=1;entryDx=0;entryDy=0;labelBackgroundColor=default;fontColor=#F0F0F0;endArrow=classic;endFill=1;strokeColor=#F0F0F0;exitX=1;exitY=0.5;exitDx=0;exitDy=0;exitPerimeter=0;" parent="1" source="35" target="33" edge="1">
                    <mxGeometry relative="1" as="geometry"/>
                </mxCell>
                <mxCell id="35" value="MT" style="shape=cylinder3;whiteSpace=wrap;html=1;boundedLbl=1;backgroundOutline=1;size=15;labelBackgroundColor=none;fontColor=#F0F0F0;strokeColor=#F0F0F0;" parent="1" vertex="1">
                    <mxGeometry x="4370" y="3860" width="60" height="60" as="geometry"/>
                </mxCell>
                <mxCell id="36" style="edgeStyle=orthogonalEdgeStyle;curved=1;html=1;labelBackgroundColor=default;fontColor=#F0F0F0;endArrow=classic;endFill=1;strokeColor=#F0F0F0;exitX=0;exitY=0.5;exitDx=0;exitDy=0;" parent="1" source="37" target="39" edge="1">
                    <mxGeometry relative="1" as="geometry"/>
                </mxCell>
                <mxCell id="37" value="Import Wallet" style="ellipse;whiteSpace=wrap;html=1;aspect=fixed;labelBackgroundColor=none;fontColor=#F0F0F0;strokeColor=#F0F0F0;" parent="1" vertex="1">
                    <mxGeometry x="4638.5" y="3700.5" width="80" height="80" as="geometry"/>
                </mxCell>
                <mxCell id="38" style="edgeStyle=orthogonalEdgeStyle;curved=1;html=1;entryX=0;entryY=0.5;entryDx=0;entryDy=0;entryPerimeter=0;labelBackgroundColor=default;fontColor=#F0F0F0;endArrow=classic;endFill=1;strokeColor=#F0F0F0;" parent="1" source="39" target="43" edge="1">
                    <mxGeometry relative="1" as="geometry"/>
                </mxCell>
                <mxCell id="39" value="Wallet Pub" style="rounded=0;whiteSpace=wrap;html=1;labelBackgroundColor=none;fontColor=#F0F0F0;strokeColor=#F0F0F0;" parent="1" vertex="1">
                    <mxGeometry x="4552.5" y="3789.5" width="120" height="60" as="geometry"/>
                </mxCell>
                <mxCell id="40" style="edgeStyle=orthogonalEdgeStyle;curved=1;html=1;entryX=1;entryY=0.5;entryDx=0;entryDy=0;labelBackgroundColor=default;fontColor=#F0F0F0;endArrow=classic;endFill=1;strokeColor=#F0F0F0;" parent="1" source="41" target="37" edge="1">
                    <mxGeometry relative="1" as="geometry"/>
                </mxCell>
                <mxCell id="41" value="List of Holdings&lt;br&gt;(quickly)" style="rounded=0;whiteSpace=wrap;html=1;labelBackgroundColor=none;fontColor=#F0F0F0;strokeColor=#F0F0F0;" parent="1" vertex="1">
                    <mxGeometry x="4685.5" y="3789.5" width="120" height="60" as="geometry"/>
                </mxCell>
                <mxCell id="42" style="edgeStyle=orthogonalEdgeStyle;curved=1;html=1;entryX=0.5;entryY=1;entryDx=0;entryDy=0;labelBackgroundColor=default;fontColor=#F0F0F0;endArrow=classic;endFill=1;strokeColor=#F0F0F0;exitX=1;exitY=0.5;exitDx=0;exitDy=0;exitPerimeter=0;" parent="1" source="43" target="41" edge="1">
                    <mxGeometry relative="1" as="geometry"/>
                </mxCell>
                <mxCell id="43" value="MT" style="shape=cylinder3;whiteSpace=wrap;html=1;boundedLbl=1;backgroundOutline=1;size=15;labelBackgroundColor=none;fontColor=#F0F0F0;strokeColor=#F0F0F0;" parent="1" vertex="1">
                    <mxGeometry x="4648.5" y="3859.5" width="60" height="60.5" as="geometry"/>
                </mxCell>
                <mxCell id="44" style="edgeStyle=orthogonalEdgeStyle;curved=1;html=1;labelBackgroundColor=default;fontColor=#F0F0F0;endArrow=classic;endFill=1;strokeColor=#F0F0F0;exitX=0;exitY=0.5;exitDx=0;exitDy=0;" parent="1" source="45" target="47" edge="1">
                    <mxGeometry relative="1" as="geometry"/>
                </mxCell>
                <mxCell id="45" value="Receive&lt;br&gt;Screen" style="ellipse;whiteSpace=wrap;html=1;aspect=fixed;labelBackgroundColor=none;fontColor=#F0F0F0;strokeColor=#F0F0F0;" parent="1" vertex="1">
                    <mxGeometry x="4910" y="3701" width="80" height="80" as="geometry"/>
                </mxCell>
                <mxCell id="46" style="edgeStyle=orthogonalEdgeStyle;curved=1;html=1;entryX=0;entryY=0.5;entryDx=0;entryDy=0;entryPerimeter=0;labelBackgroundColor=default;fontColor=#F0F0F0;endArrow=classic;endFill=1;strokeColor=#F0F0F0;" parent="1" source="47" target="51" edge="1">
                    <mxGeometry relative="1" as="geometry"/>
                </mxCell>
                <mxCell id="47" value="Wallet Pub" style="rounded=0;whiteSpace=wrap;html=1;labelBackgroundColor=none;fontColor=#F0F0F0;strokeColor=#F0F0F0;" parent="1" vertex="1">
                    <mxGeometry x="4824" y="3790" width="120" height="60" as="geometry"/>
                </mxCell>
                <mxCell id="48" style="edgeStyle=orthogonalEdgeStyle;curved=1;html=1;entryX=1;entryY=0.5;entryDx=0;entryDy=0;labelBackgroundColor=default;fontColor=#F0F0F0;endArrow=classic;endFill=1;strokeColor=#F0F0F0;" parent="1" source="49" target="45" edge="1">
                    <mxGeometry relative="1" as="geometry"/>
                </mxCell>
                <mxCell id="49" value="Empty Receive Address String" style="rounded=0;whiteSpace=wrap;html=1;labelBackgroundColor=none;fontColor=#F0F0F0;strokeColor=#F0F0F0;" parent="1" vertex="1">
                    <mxGeometry x="4957" y="3790" width="120" height="60" as="geometry"/>
                </mxCell>
                <mxCell id="50" style="edgeStyle=orthogonalEdgeStyle;curved=1;html=1;entryX=0.5;entryY=1;entryDx=0;entryDy=0;labelBackgroundColor=default;fontColor=#F0F0F0;endArrow=classic;endFill=1;strokeColor=#F0F0F0;exitX=1;exitY=0.5;exitDx=0;exitDy=0;exitPerimeter=0;" parent="1" source="51" target="49" edge="1">
                    <mxGeometry relative="1" as="geometry"/>
                </mxCell>
                <mxCell id="51" value="MT" style="shape=cylinder3;whiteSpace=wrap;html=1;boundedLbl=1;backgroundOutline=1;size=15;labelBackgroundColor=none;fontColor=#F0F0F0;strokeColor=#F0F0F0;" parent="1" vertex="1">
                    <mxGeometry x="4920" y="3860" width="60" height="60" as="geometry"/>
                </mxCell>
                <mxCell id="52" value="&lt;h1&gt;API - a conversation with the server&lt;/h1&gt;&lt;p&gt;client: &quot;I'm at the home page, I'm this wallet&quot;&lt;/p&gt;&lt;p&gt;server: &quot;holdings: name, type, total value, by asset currently held&quot;&lt;/p&gt;&lt;p&gt;&lt;br&gt;&lt;/p&gt;&lt;p&gt;c: &quot;I'm on a holding page, can I get the details for this asset, and all my transactions that had this asset?&quot;&lt;/p&gt;&lt;p&gt;s: &quot;all transactions that contained this asset, with only the aggregated asset values per transaction&quot;&lt;br&gt;&lt;/p&gt;&lt;p&gt;&lt;br&gt;&lt;/p&gt;&lt;p&gt;c: &quot;I'm on a transaction page, can I get all the relevant details for this asset on this transaction?&quot;&lt;/p&gt;&lt;p&gt;s: &quot;this transaction with, with only this asset details&quot;&lt;br&gt;&lt;/p&gt;&lt;p&gt;&lt;br&gt;&lt;/p&gt;&lt;p&gt;&lt;span&gt;c: &quot;I'm on my full transaction history page, can I just get a list of all my transactions ever, for all assets I've ever owned?&quot;&lt;/span&gt;&lt;br&gt;&lt;/p&gt;&lt;p&gt;s: &quot;all transactions, with all details per transaction&quot;&lt;/p&gt;&lt;p&gt;&lt;br&gt;&lt;/p&gt;&lt;p&gt;c: &quot;I'm on the send screen, can I get my unspents?&quot;&lt;/p&gt;&lt;p&gt;s: &quot;all unspent vouts for all addresses in this wallet&quot;&lt;/p&gt;&lt;p&gt;&lt;br&gt;&lt;/p&gt;&lt;p&gt;&lt;span&gt;c: &quot;I'm on the send screen, what's my best change address?&quot;&lt;/span&gt;&lt;br&gt;&lt;/p&gt;&lt;p&gt;s: &quot;x, index&quot;&lt;/p&gt;&lt;p&gt;&lt;br&gt;&lt;/p&gt;&lt;p&gt;&lt;span&gt;c: &quot;I'm on the send screen, what's my best receive address?&quot;&lt;/span&gt;&lt;br&gt;&lt;/p&gt;&lt;p&gt;s: &quot;y, index&quot;&lt;/p&gt;&lt;p&gt;&lt;br&gt;&lt;/p&gt;&lt;p&gt;&lt;span&gt;c: &quot;I'm on a confirmation screen, could you broadcast this transaction for me?&quot;&lt;/span&gt;&lt;br&gt;&lt;/p&gt;&lt;p&gt;s: &quot;success, Here's the transaction id, OR failure, unable to broadcast for some reason.&quot;&lt;br&gt;&lt;/p&gt;&lt;p&gt;&lt;br&gt;&lt;/p&gt;" style="text;html=1;strokeColor=none;fillColor=none;spacing=5;spacingTop=-20;whiteSpace=wrap;overflow=hidden;rounded=0;" parent="1" vertex="1">
                    <mxGeometry x="5137" y="3310" width="813" height="670" as="geometry"/>
                </mxCell>
            </root>
        </mxGraphModel>
    </diagram>
</mxfile>